<?xml version="1.0" encoding="UTF-8" standalone="no"?>
<!DOCTYPE svg PUBLIC "-//W3C//DTD SVG 1.0//EN" "http://www.w3.org/TR/2001/PR-SVG-20010719/DTD/svg10.dtd">
<svg width="35cm" height="22cm" viewBox="40 23 683 438" xmlns="http://www.w3.org/2000/svg" xmlns:xlink="http://www.w3.org/1999/xlink">
  <g>
    <ellipse style="fill: #ffffff" cx="220" cy="60" rx="35" ry="35"/>
    <ellipse style="fill: none; fill-opacity:0; stroke-width: 2; stroke: #000000" cx="220" cy="60" rx="35" ry="35"/>
    <text font-size="6.77333" style="fill: #000000;text-anchor:middle;font-family:sans-serif;font-style:normal;font-weight:normal" x="220" y="54.05">
      <tspan x="220" y="54.05">1</tspan>
      <tspan x="220" y="62.5167">Mantenimientos</tspan>
      <tspan x="220" y="70.9833">Maestros</tspan>
    </text>
  </g>
  <g>
    <ellipse style="fill: #ffffff" cx="294.741" cy="119.293" rx="29.7407" ry="24.2929"/>
    <ellipse style="fill: none; fill-opacity:0; stroke-width: 2; stroke: #000000" cx="294.741" cy="119.293" rx="29.7407" ry="24.2929"/>
    <text font-size="6.77333" style="fill: #000000;text-anchor:middle;font-family:sans-serif;font-style:normal;font-weight:normal" x="294.741" y="113.343">
      <tspan x="294.741" y="113.343">1.1</tspan>
      <tspan x="294.741" y="121.81">Mantenimiento</tspan>
      <tspan x="294.741" y="130.276">empleados</tspan>
    </text>
  </g>
  <g>
    <ellipse style="fill: #ffffff" cx="575.479" cy="129.169" rx="30.4793" ry="24.1688"/>
    <ellipse style="fill: none; fill-opacity:0; stroke-width: 2; stroke: #000000" cx="575.479" cy="129.169" rx="30.4793" ry="24.1688"/>
    <text font-size="6.77333" style="fill: #000000;text-anchor:middle;font-family:sans-serif;font-style:normal;font-weight:normal" x="575.479" y="123.219">
      <tspan x="575.479" y="123.219">1.3</tspan>
      <tspan x="575.479" y="131.685">Mantenimiento</tspan>
      <tspan x="575.479" y="140.152">Departamentos</tspan>
    </text>
  </g>
  <g>
    <ellipse style="fill: #ffffff" cx="290.481" cy="185.206" rx="25.4812" ry="20.2055"/>
    <ellipse style="fill: none; fill-opacity:0; stroke-width: 2; stroke: #000000" cx="290.481" cy="185.206" rx="25.4812" ry="20.2055"/>
    <text font-size="6.77333" style="fill: #000000;text-anchor:middle;font-family:sans-serif;font-style:normal;font-weight:normal" x="290.481" y="179.256">
      <tspan x="290.481" y="179.256">1.1.3</tspan>
      <tspan x="290.481" y="187.722">Bajas</tspan>
      <tspan x="290.481" y="196.189">Empleados</tspan>
    </text>
  </g>
  <g>
    <ellipse style="fill: #ffffff" cx="632.588" cy="191.351" rx="27.5882" ry="26.3512"/>
    <ellipse style="fill: none; fill-opacity:0; stroke-width: 2; stroke: #000000" cx="632.588" cy="191.351" rx="27.5882" ry="26.3512"/>
    <text font-size="6.77333" style="fill: #000000;text-anchor:middle;font-family:sans-serif;font-style:normal;font-weight:normal" x="632.588" y="185.401">
      <tspan x="632.588" y="185.401">1.3.3</tspan>
      <tspan x="632.588" y="193.868">Eliminar</tspan>
      <tspan x="632.588" y="202.335">Departamento</tspan>
    </text>
  </g>
  <g>
    <ellipse style="fill: #ffffff" cx="350.482" cy="165.206" rx="25.4824" ry="20.2064"/>
    <ellipse style="fill: none; fill-opacity:0; stroke-width: 2; stroke: #000000" cx="350.482" cy="165.206" rx="25.4824" ry="20.2064"/>
    <text font-size="6.77333" style="fill: #000000;text-anchor:middle;font-family:sans-serif;font-style:normal;font-weight:normal" x="350.482" y="159.256">
      <tspan x="350.482" y="159.256">1.1.2</tspan>
      <tspan x="350.482" y="167.723">Modificar</tspan>
      <tspan x="350.482" y="176.19">Empleados</tspan>
    </text>
  </g>
  <g>
    <ellipse style="fill: #ffffff" cx="230.481" cy="205.206" rx="25.4812" ry="20.2055"/>
    <ellipse style="fill: none; fill-opacity:0; stroke-width: 2; stroke: #000000" cx="230.481" cy="205.206" rx="25.4812" ry="20.2055"/>
    <text font-size="6.77333" style="fill: #000000;text-anchor:middle;font-family:sans-serif;font-style:normal;font-weight:normal" x="230.481" y="199.256">
      <tspan x="230.481" y="199.256">1.1.1</tspan>
      <tspan x="230.481" y="207.722">Altas</tspan>
      <tspan x="230.481" y="216.189">Empleados</tspan>
    </text>
  </g>
  <g>
    <ellipse style="fill: #ffffff" cx="434.918" cy="128.723" rx="29.9175" ry="23.7233"/>
    <ellipse style="fill: none; fill-opacity:0; stroke-width: 2; stroke: #000000" cx="434.918" cy="128.723" rx="29.9175" ry="23.7233"/>
    <text font-size="6.77333" style="fill: #000000;text-anchor:middle;font-family:sans-serif;font-style:normal;font-weight:normal" x="434.918" y="122.773">
      <tspan x="434.918" y="122.773">1.2</tspan>
      <tspan x="434.918" y="131.24">Mantenimiento</tspan>
      <tspan x="434.918" y="139.707">Puestos</tspan>
    </text>
  </g>
  <line style="fill: none; fill-opacity:0; stroke-width: 2; stroke: #000000" x1="248.192" y1="82.3651" x2="272.62" y2="101.745"/>
  <line style="fill: none; fill-opacity:0; stroke-width: 2; stroke: #000000" x1="278.637" y1="140.824" x2="244.075" y2="187.031"/>
  <line style="fill: none; fill-opacity:0; stroke-width: 2; stroke: #000000" x1="316.433" y1="137.161" x2="332.056" y2="150.029"/>
  <line style="fill: none; fill-opacity:0; stroke-width: 2; stroke: #000000" x1="293.109" y1="144.541" x2="291.848" y2="164.061"/>
  <g>
    <ellipse style="fill: #ffffff" cx="653.547" cy="110.997" rx="28.5474" ry="25.9967"/>
    <ellipse style="fill: none; fill-opacity:0; stroke-width: 2; stroke: #000000" cx="653.547" cy="110.997" rx="28.5474" ry="25.9967"/>
    <text font-size="6.77333" style="fill: #000000;text-anchor:middle;font-family:sans-serif;font-style:normal;font-weight:normal" x="653.547" y="105.047">
      <tspan x="653.547" y="105.047">1.3.2</tspan>
      <tspan x="653.547" y="113.513">Modificar</tspan>
      <tspan x="653.547" y="121.98">Departamento</tspan>
    </text>
  </g>
  <g>
    <ellipse style="fill: #ffffff" cx="533.621" cy="231.499" rx="28.6206" ry="26.499"/>
    <ellipse style="fill: none; fill-opacity:0; stroke-width: 2; stroke: #000000" cx="533.621" cy="231.499" rx="28.6206" ry="26.499"/>
    <text font-size="6.77333" style="fill: #000000;text-anchor:middle;font-family:sans-serif;font-style:normal;font-weight:normal" x="533.621" y="225.549">
      <tspan x="533.621" y="225.549">1.3.1</tspan>
      <tspan x="533.621" y="234.016">Crear</tspan>
      <tspan x="533.621" y="242.482">Departamento</tspan>
    </text>
  </g>
  <g>
    <ellipse style="fill: #ffffff" cx="466.019" cy="184.808" rx="21.0192" ry="19.8084"/>
    <ellipse style="fill: none; fill-opacity:0; stroke-width: 2; stroke: #000000" cx="466.019" cy="184.808" rx="21.0192" ry="19.8084"/>
    <text font-size="6.77333" style="fill: #000000;text-anchor:middle;font-family:sans-serif;font-style:normal;font-weight:normal" x="466.019" y="178.858">
      <tspan x="466.019" y="178.858">1.2.3</tspan>
      <tspan x="466.019" y="187.325">Eliminar</tspan>
      <tspan x="466.019" y="195.792">Puesto</tspan>
    </text>
  </g>
  <g>
    <ellipse style="fill: #ffffff" cx="487.161" cy="85.8848" rx="22.1614" ry="20.8848"/>
    <ellipse style="fill: none; fill-opacity:0; stroke-width: 2; stroke: #000000" cx="487.161" cy="85.8848" rx="22.1614" ry="20.8848"/>
    <text font-size="6.77333" style="fill: #000000;text-anchor:middle;font-family:sans-serif;font-style:normal;font-weight:normal" x="487.161" y="79.9348">
      <tspan x="487.161" y="79.9348">1.2.2</tspan>
      <tspan x="487.161" y="88.4015">Modificar</tspan>
      <tspan x="487.161" y="96.8681">Puesto</tspan>
    </text>
  </g>
  <g>
    <ellipse style="fill: #ffffff" cx="405.372" cy="224.199" rx="20.3723" ry="19.1988"/>
    <ellipse style="fill: none; fill-opacity:0; stroke-width: 2; stroke: #000000" cx="405.372" cy="224.199" rx="20.3723" ry="19.1988"/>
    <text font-size="6.77333" style="fill: #000000;text-anchor:middle;font-family:sans-serif;font-style:normal;font-weight:normal" x="405.372" y="218.249">
      <tspan x="405.372" y="218.249">1.2.1</tspan>
      <tspan x="405.372" y="226.716">Crear</tspan>
      <tspan x="405.372" y="235.182">Puesto </tspan>
    </text>
  </g>
  <g>
    <ellipse style="fill: #ffffff" cx="193.483" cy="267.586" rx="28.4827" ry="22.5856"/>
    <ellipse style="fill: none; fill-opacity:0; stroke-width: 2; stroke: #000000" cx="193.483" cy="267.586" rx="28.4827" ry="22.5856"/>
    <text font-size="6.77333" style="fill: #000000;text-anchor:middle;font-family:sans-serif;font-style:normal;font-weight:normal" x="193.483" y="261.636">
      <tspan x="193.483" y="261.636">1.1.1.1</tspan>
      <tspan x="193.483" y="270.102">Ingresar ID</tspan>
      <tspan x="193.483" y="278.569">del Empleado</tspan>
    </text>
  </g>
  <g>
    <ellipse style="fill: #ffffff" cx="277.091" cy="270.447" rx="32.0907" ry="25.4466"/>
    <ellipse style="fill: none; fill-opacity:0; stroke-width: 2; stroke: #000000" cx="277.091" cy="270.447" rx="32.0907" ry="25.4466"/>
    <text font-size="6.77333" style="fill: #000000;text-anchor:middle;font-family:sans-serif;font-style:normal;font-weight:normal" x="277.091" y="260.263">
      <tspan x="277.091" y="260.263">1.1.1.2</tspan>
      <tspan x="277.091" y="268.73">Ingresar</tspan>
      <tspan x="277.091" y="277.197">Nombre</tspan>
      <tspan x="277.091" y="285.663">del Empleado</tspan>
    </text>
  </g>
  <g>
    <ellipse style="fill: #ffffff" cx="233.412" cy="307.529" rx="28.4119" ry="22.5294"/>
    <ellipse style="fill: none; fill-opacity:0; stroke-width: 2; stroke: #000000" cx="233.412" cy="307.529" rx="28.4119" ry="22.5294"/>
    <text font-size="6.77333" style="fill: #000000;text-anchor:middle;font-family:sans-serif;font-style:normal;font-weight:normal" x="233.412" y="301.579">
      <tspan x="233.412" y="301.579">1.1.1.3</tspan>
      <tspan x="233.412" y="310.046">Ingresar Nit</tspan>
      <tspan x="233.412" y="318.513">del Empleado</tspan>
    </text>
  </g>
  <g>
    <ellipse style="fill: #ffffff" cx="451.216" cy="300.268" rx="26.2157" ry="29.0358"/>
    <ellipse style="fill: none; fill-opacity:0; stroke-width: 2; stroke: #000000" cx="451.216" cy="300.268" rx="26.2157" ry="29.0358"/>
    <text font-size="6.77333" style="fill: #000000;text-anchor:middle;font-family:sans-serif;font-style:normal;font-weight:normal" x="451.216" y="290.085">
      <tspan x="451.216" y="290.085">1.2.1.2</tspan>
      <tspan x="451.216" y="298.551">Ingresar</tspan>
      <tspan x="451.216" y="307.018">Sueldo/hora</tspan>
      <tspan x="451.216" y="315.485">del puesto</tspan>
    </text>
  </g>
  <g>
    <ellipse style="fill: #ffffff" cx="375.336" cy="309.055" rx="30.3355" ry="24.0548"/>
    <ellipse style="fill: none; fill-opacity:0; stroke-width: 2; stroke: #000000" cx="375.336" cy="309.055" rx="30.3355" ry="24.0548"/>
    <text font-size="6.77333" style="fill: #000000;text-anchor:middle;font-family:sans-serif;font-style:normal;font-weight:normal" x="375.336" y="298.871">
      <tspan x="375.336" y="298.871">1.2.1.1</tspan>
      <tspan x="375.336" y="307.338">Ingresar</tspan>
      <tspan x="375.336" y="315.805">Nombre del</tspan>
      <tspan x="375.336" y="324.271">Puesto</tspan>
    </text>
  </g>
  <g>
    <ellipse style="fill: #ffffff" cx="537.898" cy="351.086" rx="32.8977" ry="26.0865"/>
    <ellipse style="fill: none; fill-opacity:0; stroke-width: 2; stroke: #000000" cx="537.898" cy="351.086" rx="32.8977" ry="26.0865"/>
    <text font-size="6.77333" style="fill: #000000;text-anchor:middle;font-family:sans-serif;font-style:normal;font-weight:normal" x="537.898" y="340.903">
      <tspan x="537.898" y="340.903">1.3.1.1</tspan>
      <tspan x="537.898" y="349.37">Ingresar</tspan>
      <tspan x="537.898" y="357.836">Nombre del</tspan>
      <tspan x="537.898" y="366.303">Departamento</tspan>
    </text>
  </g>
  <line style="fill: none; fill-opacity:0; stroke-width: 2; stroke: #000000" x1="427.495" y1="152.709" x2="411.143" y2="205.551"/>
  <line style="fill: none; fill-opacity:0; stroke-width: 2; stroke: #000000" x1="456.473" y1="111.048" x2="469.687" y2="100.213"/>
  <line style="fill: none; fill-opacity:0; stroke-width: 2; stroke: #000000" x1="447.439" y1="151.303" x2="455.806" y2="166.392"/>
  <line style="fill: none; fill-opacity:0; stroke-width: 2; stroke: #000000" x1="565.699" y1="153.077" x2="544.131" y2="205.804"/>
  <line style="fill: none; fill-opacity:0; stroke-width: 2; stroke: #000000" x1="605.689" y1="122.137" x2="624.91" y2="117.663"/>
  <line style="fill: none; fill-opacity:0; stroke-width: 2; stroke: #000000" x1="594.051" y1="149.39" x2="613.724" y2="170.811"/>
  <line style="fill: none; fill-opacity:0; stroke-width: 2; stroke: #000000" x1="219.127" y1="224.349" x2="206.115" y2="246.287"/>
  <line style="fill: none; fill-opacity:0; stroke-width: 2; stroke: #000000" x1="243.619" y1="223.594" x2="260.693" y2="247.494"/>
  <line style="fill: none; fill-opacity:0; stroke-width: 2; stroke: #000000" x1="231.088" y1="226.402" x2="232.739" y2="284.022"/>
  <line style="fill: none; fill-opacity:0; stroke-width: 2; stroke: #000000" x1="415.952" y1="241.754" x2="436.145" y2="275.261"/>
  <g>
    <ellipse style="fill: #ffffff" cx="70.4811" cy="285.206" rx="26.4357" ry="20.9624"/>
    <ellipse style="fill: none; fill-opacity:0; stroke-width: 2; stroke: #000000" cx="70.4811" cy="285.206" rx="26.4357" ry="20.9624"/>
    <text font-size="6.77333" style="fill: #000000;text-anchor:middle;font-family:sans-serif;font-style:normal;font-weight:normal" x="70.4811" y="279.256">
      <tspan x="70.4811" y="279.256">1.4</tspan>
      <tspan x="70.4811" y="287.723">Consulta de</tspan>
      <tspan x="70.4811" y="296.19">Datos</tspan>
    </text>
  </g>
  <g>
    <ellipse style="fill: #ffffff" cx="621.925" cy="354.28" rx="36.9248" ry="29.2799"/>
    <ellipse style="fill: none; fill-opacity:0; stroke-width: 2; stroke: #000000" cx="621.925" cy="354.28" rx="36.9248" ry="29.2799"/>
    <text font-size="6.77333" style="fill: #000000;text-anchor:middle;font-family:sans-serif;font-style:normal;font-weight:normal" x="621.925" y="344.097">
      <tspan x="621.925" y="344.097">1.3.1.3</tspan>
      <tspan x="621.925" y="352.563">Ingresar</tspan>
      <tspan x="621.925" y="361.03">Ubicacion</tspan>
      <tspan x="621.925" y="369.497">del Departamento</tspan>
    </text>
  </g>
  <g>
    <ellipse style="fill: #ffffff" cx="661.019" cy="298.582" rx="36.0187" ry="33.5823"/>
    <ellipse style="fill: none; fill-opacity:0; stroke-width: 2; stroke: #000000" cx="661.019" cy="298.582" rx="36.0187" ry="33.5823"/>
    <text font-size="6.77333" style="fill: #000000;text-anchor:middle;font-family:sans-serif;font-style:normal;font-weight:normal" x="661.019" y="288.399">
      <tspan x="661.019" y="288.399">1,3,1,2</tspan>
      <tspan x="661.019" y="296.866">Ingresar</tspan>
      <tspan x="661.019" y="305.332"> Presupuesto</tspan>
      <tspan x="661.019" y="313.799">del Departamento</tspan>
    </text>
  </g>
  <line style="fill: none; fill-opacity:0; stroke-width: 2; stroke: #000000" x1="254.296" y1="70.9666" x2="406.243" y2="119.554"/>
  <line style="fill: none; fill-opacity:0; stroke-width: 2; stroke: #000000" x1="255.333" y1="66.8751" x2="544.909" y2="123.22"/>
  <line style="fill: none; fill-opacity:0; stroke-width: 2; stroke: #000000" x1="398.593" y1="243.352" x2="383.857" y2="284.982"/>
  <line style="fill: none; fill-opacity:0; stroke-width: 2; stroke: #000000" x1="534.603" y1="258.973" x2="536.945" y2="324.46"/>
  <line style="fill: none; fill-opacity:0; stroke-width: 2; stroke: #000000" x1="559.382" y1="245.064" x2="628.78" y2="281.607"/>
  <line style="fill: none; fill-opacity:0; stroke-width: 2; stroke: #000000" x1="550.059" y1="254.356" x2="603.083" y2="328.081"/>
  <g>
    <rect style="fill: #ffffff" x="205" y="365" width="100" height="20"/>
    <rect style="fill: none; fill-opacity:0; stroke-width: 2; stroke: #000000" x="205" y="365" width="100" height="20"/>
    <text font-size="7.90222" style="fill: #000000;text-anchor:middle;font-family:sans-serif;font-style:normal;font-weight:normal" x="255" y="377.961">
      <tspan x="255" y="377.961">   Empleados</tspan>
    </text>
  </g>
  <g>
    <rect style="fill: #ffffff" x="205" y="365" width="24" height="20"/>
    <rect style="fill: none; fill-opacity:0; stroke-width: 2; stroke: #000000" x="205" y="365" width="24" height="20"/>
    <text font-size="8.79404" style="fill: #000000;text-anchor:middle;font-family:sans-serif;font-style:normal;font-weight:normal" x="217" y="378.304">
      <tspan x="217" y="378.304">A</tspan>
    </text>
  </g>
  <g>
    <rect style="fill: #ffffff" x="545" y="425" width="100" height="20"/>
    <rect style="fill: none; fill-opacity:0; stroke-width: 2; stroke: #000000" x="545" y="425" width="100" height="20"/>
    <text font-size="7.90222" style="fill: #000000;text-anchor:middle;font-family:sans-serif;font-style:normal;font-weight:normal" x="595" y="437.961">
      <tspan x="595" y="437.961">   Departamentos</tspan>
    </text>
  </g>
  <g>
    <rect style="fill: #ffffff" x="545" y="425" width="24" height="20"/>
    <rect style="fill: none; fill-opacity:0; stroke-width: 2; stroke: #000000" x="545" y="425" width="24" height="20"/>
    <text font-size="8.79404" style="fill: #000000;text-anchor:middle;font-family:sans-serif;font-style:normal;font-weight:normal" x="557" y="438.304">
      <tspan x="557" y="438.304">C</tspan>
    </text>
  </g>
  <g>
    <path style="fill: none; fill-opacity:0; stroke-width: 2; stroke: #000000" d="M 173.598 284.983 C 85.1159,362.397 183.685,375 193.109,375"/>
    <polygon style="fill: #000000" points="193.109,380 203.109,375 193.109,370 "/>
    <polygon style="fill: none; fill-opacity:0; stroke-width: 2; stroke: #000000" points="193.109,380 203.109,375 193.109,370 "/>
  </g>
  <g>
    <line style="fill: none; fill-opacity:0; stroke-width: 2; stroke: #000000" x1="240.685" y1="330.261" x2="248.138" y2="353.553"/>
    <polygon style="fill: #000000" points="243.375,355.076 251.185,363.077 252.9,352.029 "/>
    <polygon style="fill: none; fill-opacity:0; stroke-width: 2; stroke: #000000" points="243.375,355.076 251.185,363.077 252.9,352.029 "/>
  </g>
  <g>
    <path style="fill: none; fill-opacity:0; stroke-width: 2; stroke: #000000" d="M 304.791 284.891 C 332.701,299.445 325,365 314.839,370.081"/>
    <polygon style="fill: #000000" points="312.603,365.609 305.894,374.553 317.075,374.553 "/>
    <polygon style="fill: none; fill-opacity:0; stroke-width: 2; stroke: #000000" points="312.603,365.609 305.894,374.553 317.075,374.553 "/>
  </g>
  <g>
    <rect style="fill: #ffffff" x="365" y="405" width="100" height="20"/>
    <rect style="fill: none; fill-opacity:0; stroke-width: 2; stroke: #000000" x="365" y="405" width="100" height="20"/>
    <text font-size="7.90222" style="fill: #000000;text-anchor:middle;font-family:sans-serif;font-style:normal;font-weight:normal" x="415" y="417.961">
      <tspan x="415" y="417.961">   Puestos</tspan>
    </text>
  </g>
  <g>
    <rect style="fill: #ffffff" x="365" y="405" width="24" height="20"/>
    <rect style="fill: none; fill-opacity:0; stroke-width: 2; stroke: #000000" x="365" y="405" width="24" height="20"/>
    <text font-size="8.79404" style="fill: #000000;text-anchor:middle;font-family:sans-serif;font-style:normal;font-weight:normal" x="377" y="418.304">
      <tspan x="377" y="418.304">B</tspan>
    </text>
  </g>
  <g>
    <polyline style="fill: none; fill-opacity:0; stroke-width: 2; stroke: #000000" points="384.167,332.644 407.028,393.705 "/>
    <polygon style="fill: #000000" points="402.345,395.458 410.534,403.071 411.71,391.952 "/>
    <polygon style="fill: none; fill-opacity:0; stroke-width: 2; stroke: #000000" points="402.345,395.458 410.534,403.071 411.71,391.952 "/>
  </g>
  <g>
    <polyline style="fill: none; fill-opacity:0; stroke-width: 2; stroke: #000000" points="442.264,328.629 421.782,393.516 "/>
    <polygon style="fill: #000000" points="417.013,392.011 418.771,403.052 426.55,395.021 "/>
    <polygon style="fill: none; fill-opacity:0; stroke-width: 2; stroke: #000000" points="417.013,392.011 418.771,403.052 426.55,395.021 "/>
  </g>
  <g>
    <path style="fill: none; fill-opacity:0; stroke-width: 2; stroke: #000000" d="M 521.268 374.323 C 468.37,448.237 537.663,435 533.005,435"/>
    <polygon style="fill: #000000" points="533.005,440 543.005,435 533.005,430 "/>
    <polygon style="fill: none; fill-opacity:0; stroke-width: 2; stroke: #000000" points="533.005,440 543.005,435 533.005,430 "/>
  </g>
  <g>
    <line style="fill: none; fill-opacity:0; stroke-width: 2; stroke: #000000" x1="612.167" y1="383.535" x2="602.152" y2="413.559"/>
    <polygon style="fill: #000000" points="597.409,411.977 598.988,423.045 606.895,415.141 "/>
    <polygon style="fill: none; fill-opacity:0; stroke-width: 2; stroke: #000000" points="597.409,411.977 598.988,423.045 606.895,415.141 "/>
  </g>
  <g>
    <path style="fill: none; fill-opacity:0; stroke-width: 2; stroke: #000000" d="M 689.256 320.914 C 773.238,387.332 667.914,435 656.996,435"/>
    <polygon style="fill: #000000" points="656.996,430 646.996,435 656.996,440 "/>
    <polygon style="fill: none; fill-opacity:0; stroke-width: 2; stroke: #000000" points="656.996,430 646.996,435 656.996,440 "/>
  </g>
  <line style="fill: none; fill-opacity:0; stroke-width: 2; stroke: #000000" x1="200.096" y1="89.979" x2="83.3532" y2="265.818"/>
  <g>
    <path style="fill: none; fill-opacity:0; stroke-width: 2; stroke: #000000" d="M 76.1111 317.793 C 108.757,506.747 162.356,385 211,385"/>
    <polygon style="fill: #000000" points="81.0381,316.942 74.4086,307.939 71.1841,318.644 "/>
    <polygon style="fill: none; fill-opacity:0; stroke-width: 2; stroke: #000000" points="81.0381,316.942 74.4086,307.939 71.1841,318.644 "/>
  </g>
  <g>
    <path style="fill: none; fill-opacity:0; stroke-width: 2; stroke: #000000" d="M 66.6827 317.969 C 42.4683,526.836 263.534,415 365.298,415"/>
    <polygon style="fill: #000000" points="71.6494,318.545 67.8343,308.036 61.716,317.393 "/>
    <polygon style="fill: none; fill-opacity:0; stroke-width: 2; stroke: #000000" points="71.6494,318.545 67.8343,308.036 61.716,317.393 "/>
  </g>
  <g>
    <path style="fill: none; fill-opacity:0; stroke-width: 2; stroke: #000000" d="M 55.8869 315.616 C -44.835,525.493 398.82,445 563,445"/>
    <polygon style="fill: #000000" points="60.3946,317.78 60.2135,306.601 51.3791,313.453 "/>
    <polygon style="fill: none; fill-opacity:0; stroke-width: 2; stroke: #000000" points="60.3946,317.78 60.2135,306.601 51.3791,313.453 "/>
  </g>
</svg>
