<?xml version="1.0" encoding="UTF-8" standalone="no"?>
<!DOCTYPE svg PUBLIC "-//W3C//DTD SVG 1.0//EN" "http://www.w3.org/TR/2001/PR-SVG-20010719/DTD/svg10.dtd">
<svg width="42cm" height="23cm" viewBox="1 6 838 449" xmlns="http://www.w3.org/2000/svg" xmlns:xlink="http://www.w3.org/1999/xlink">
  <g>
    <rect style="fill: none; fill-opacity:0; stroke-width: 2; stroke: #000000" x="3" y="8" width="303" height="152"/>
    <text font-size="12.7998" style="fill: #000000;text-anchor:middle;font-family:sans-serif;font-style:normal;font-weight:normal" x="154.5" y="88.8">
      <tspan x="154.5" y="88.8"></tspan>
    </text>
  </g>
  <g>
    <ellipse style="fill: #ffffff" cx="117.855" cy="52" rx="35" ry="35"/>
    <ellipse style="fill: none; fill-opacity:0; stroke-width: 2; stroke: #000000" cx="117.855" cy="52" rx="35" ry="35"/>
    <text font-size="6.77333" style="fill: #000000;text-anchor:middle;font-family:sans-serif;font-style:normal;font-weight:normal" x="117.855" y="46.05">
      <tspan x="117.855" y="46.05">1</tspan>
      <tspan x="117.855" y="54.5167">Mantenimientos</tspan>
      <tspan x="117.855" y="62.9833">Maestros</tspan>
    </text>
  </g>
  <g>
    <ellipse style="fill: #ffffff" cx="106.595" cy="124.293" rx="29.7407" ry="24.2929"/>
    <ellipse style="fill: none; fill-opacity:0; stroke-width: 2; stroke: #000000" cx="106.595" cy="124.293" rx="29.7407" ry="24.2929"/>
    <text font-size="6.77333" style="fill: #000000;text-anchor:middle;font-family:sans-serif;font-style:normal;font-weight:normal" x="106.595" y="118.343">
      <tspan x="106.595" y="118.343">1.1</tspan>
      <tspan x="106.595" y="126.81">Mantenimiento</tspan>
      <tspan x="106.595" y="135.276">empleados</tspan>
    </text>
  </g>
  <g>
    <ellipse style="fill: #ffffff" cx="262.334" cy="115.169" rx="30.4793" ry="24.1688"/>
    <ellipse style="fill: none; fill-opacity:0; stroke-width: 2; stroke: #000000" cx="262.334" cy="115.169" rx="30.4793" ry="24.1688"/>
    <text font-size="6.77333" style="fill: #000000;text-anchor:middle;font-family:sans-serif;font-style:normal;font-weight:normal" x="262.334" y="109.219">
      <tspan x="262.334" y="109.219">1.3</tspan>
      <tspan x="262.334" y="117.685">Mantenimiento</tspan>
      <tspan x="262.334" y="126.152">Departamentos</tspan>
    </text>
  </g>
  <g>
    <ellipse style="fill: #ffffff" cx="181.772" cy="120.723" rx="29.9175" ry="23.7233"/>
    <ellipse style="fill: none; fill-opacity:0; stroke-width: 2; stroke: #000000" cx="181.772" cy="120.723" rx="29.9175" ry="23.7233"/>
    <text font-size="6.77333" style="fill: #000000;text-anchor:middle;font-family:sans-serif;font-style:normal;font-weight:normal" x="181.772" y="114.773">
      <tspan x="181.772" y="114.773">1.2</tspan>
      <tspan x="181.772" y="123.24">Mantenimiento</tspan>
      <tspan x="181.772" y="131.707">Puestos</tspan>
    </text>
  </g>
  <line style="fill: none; fill-opacity:0; stroke-width: 2; stroke: #000000" x1="112.357" y1="87.2993" x2="110.501" y2="99.2128"/>
  <g>
    <ellipse style="fill: #ffffff" cx="39.3357" cy="124.206" rx="26.4357" ry="20.9624"/>
    <ellipse style="fill: none; fill-opacity:0; stroke-width: 2; stroke: #000000" cx="39.3357" cy="124.206" rx="26.4357" ry="20.9624"/>
    <text font-size="6.77333" style="fill: #000000;text-anchor:middle;font-family:sans-serif;font-style:normal;font-weight:normal" x="39.3357" y="118.256">
      <tspan x="39.3357" y="118.256">1.4</tspan>
      <tspan x="39.3357" y="126.723">Consulta de</tspan>
      <tspan x="39.3357" y="135.19">Datos</tspan>
    </text>
  </g>
  <line style="fill: none; fill-opacity:0; stroke-width: 2; stroke: #000000" x1="142.354" y1="78.3417" x2="163.343" y2="100.908"/>
  <line style="fill: none; fill-opacity:0; stroke-width: 2; stroke: #000000" x1="150.844" y1="66.4235" x2="234.733" y2="103.101"/>
  <line style="fill: none; fill-opacity:0; stroke-width: 2; stroke: #000000" x1="91.3525" y1="76.3714" x2="57.3264" y2="107.662"/>
  <g>
    <ellipse style="fill: #ffffff" cx="416.641" cy="56.2929" rx="29.7407" ry="24.2929"/>
    <ellipse style="fill: none; fill-opacity:0; stroke-width: 2; stroke: #000000" cx="416.641" cy="56.2929" rx="29.7407" ry="24.2929"/>
    <text font-size="6.77333" style="fill: #000000;text-anchor:middle;font-family:sans-serif;font-style:normal;font-weight:normal" x="416.641" y="50.3429">
      <tspan x="416.641" y="50.3429">1.1</tspan>
      <tspan x="416.641" y="58.8096">Mantenimiento</tspan>
      <tspan x="416.641" y="67.2763">empleados</tspan>
    </text>
  </g>
  <g>
    <ellipse style="fill: #ffffff" cx="703.379" cy="57.1688" rx="30.4793" ry="24.1688"/>
    <ellipse style="fill: none; fill-opacity:0; stroke-width: 2; stroke: #000000" cx="703.379" cy="57.1688" rx="30.4793" ry="24.1688"/>
    <text font-size="6.77333" style="fill: #000000;text-anchor:middle;font-family:sans-serif;font-style:normal;font-weight:normal" x="703.379" y="51.2188">
      <tspan x="703.379" y="51.2188">1.3</tspan>
      <tspan x="703.379" y="59.6855">Mantenimiento</tspan>
      <tspan x="703.379" y="68.1521">Departamentos</tspan>
    </text>
  </g>
  <g>
    <ellipse style="fill: #ffffff" cx="421.381" cy="120.206" rx="25.4812" ry="20.2055"/>
    <ellipse style="fill: none; fill-opacity:0; stroke-width: 2; stroke: #000000" cx="421.381" cy="120.206" rx="25.4812" ry="20.2055"/>
    <text font-size="6.77333" style="fill: #000000;text-anchor:middle;font-family:sans-serif;font-style:normal;font-weight:normal" x="421.381" y="114.256">
      <tspan x="421.381" y="114.256">1.1.3</tspan>
      <tspan x="421.381" y="122.722">Bajas</tspan>
      <tspan x="421.381" y="131.189">Empleados</tspan>
    </text>
  </g>
  <g>
    <ellipse style="fill: #ffffff" cx="802.488" cy="122.351" rx="27.5882" ry="26.3512"/>
    <ellipse style="fill: none; fill-opacity:0; stroke-width: 2; stroke: #000000" cx="802.488" cy="122.351" rx="27.5882" ry="26.3512"/>
    <text font-size="6.77333" style="fill: #000000;text-anchor:middle;font-family:sans-serif;font-style:normal;font-weight:normal" x="802.488" y="116.401">
      <tspan x="802.488" y="116.401">1.3.3</tspan>
      <tspan x="802.488" y="124.868">Eliminar</tspan>
      <tspan x="802.488" y="133.335">Departamento</tspan>
    </text>
  </g>
  <g>
    <ellipse style="fill: #ffffff" cx="477.382" cy="118.206" rx="25.4824" ry="20.2064"/>
    <ellipse style="fill: none; fill-opacity:0; stroke-width: 2; stroke: #000000" cx="477.382" cy="118.206" rx="25.4824" ry="20.2064"/>
    <text font-size="6.77333" style="fill: #000000;text-anchor:middle;font-family:sans-serif;font-style:normal;font-weight:normal" x="477.382" y="112.256">
      <tspan x="477.382" y="112.256">1.1.2</tspan>
      <tspan x="477.382" y="120.723">Modificar</tspan>
      <tspan x="477.382" y="129.19">Empleados</tspan>
    </text>
  </g>
  <g>
    <ellipse style="fill: #ffffff" cx="359.381" cy="120.206" rx="25.4812" ry="20.2055"/>
    <ellipse style="fill: none; fill-opacity:0; stroke-width: 2; stroke: #000000" cx="359.381" cy="120.206" rx="25.4812" ry="20.2055"/>
    <text font-size="6.77333" style="fill: #000000;text-anchor:middle;font-family:sans-serif;font-style:normal;font-weight:normal" x="359.381" y="114.256">
      <tspan x="359.381" y="114.256">1.1.1</tspan>
      <tspan x="359.381" y="122.722">Altas</tspan>
      <tspan x="359.381" y="131.189">Empleados</tspan>
    </text>
  </g>
  <g>
    <ellipse style="fill: #ffffff" cx="576.818" cy="57.7233" rx="29.9175" ry="23.7233"/>
    <ellipse style="fill: none; fill-opacity:0; stroke-width: 2; stroke: #000000" cx="576.818" cy="57.7233" rx="29.9175" ry="23.7233"/>
    <text font-size="6.77333" style="fill: #000000;text-anchor:middle;font-family:sans-serif;font-style:normal;font-weight:normal" x="576.818" y="51.7733">
      <tspan x="576.818" y="51.7733">1.2</tspan>
      <tspan x="576.818" y="60.24">Mantenimiento</tspan>
      <tspan x="576.818" y="68.7067">Puestos</tspan>
    </text>
  </g>
  <line style="fill: none; fill-opacity:0; stroke-width: 2; stroke: #000000" x1="398.405" y1="76.6479" x2="374.703" y2="103.104"/>
  <line style="fill: none; fill-opacity:0; stroke-width: 2; stroke: #000000" x1="435.934" y1="75.9583" x2="461.033" y2="101.541"/>
  <line style="fill: none; fill-opacity:0; stroke-width: 2; stroke: #000000" x1="418.512" y1="81.524" x2="419.811" y2="99.0391"/>
  <g>
    <ellipse style="fill: #ffffff" cx="742.447" cy="125.997" rx="28.5474" ry="25.9967"/>
    <ellipse style="fill: none; fill-opacity:0; stroke-width: 2; stroke: #000000" cx="742.447" cy="125.997" rx="28.5474" ry="25.9967"/>
    <text font-size="6.77333" style="fill: #000000;text-anchor:middle;font-family:sans-serif;font-style:normal;font-weight:normal" x="742.447" y="120.047">
      <tspan x="742.447" y="120.047">1.3.2</tspan>
      <tspan x="742.447" y="128.513">Modificar</tspan>
      <tspan x="742.447" y="136.98">Departamento</tspan>
    </text>
  </g>
  <g>
    <ellipse style="fill: #ffffff" cx="683.521" cy="126.499" rx="28.6206" ry="26.499"/>
    <ellipse style="fill: none; fill-opacity:0; stroke-width: 2; stroke: #000000" cx="683.521" cy="126.499" rx="28.6206" ry="26.499"/>
    <text font-size="6.77333" style="fill: #000000;text-anchor:middle;font-family:sans-serif;font-style:normal;font-weight:normal" x="683.521" y="120.549">
      <tspan x="683.521" y="120.549">1.3.1</tspan>
      <tspan x="683.521" y="129.016">Crear</tspan>
      <tspan x="683.521" y="137.482">Departamento</tspan>
    </text>
  </g>
  <g>
    <ellipse style="fill: #ffffff" cx="628.919" cy="124.808" rx="21.0192" ry="19.8084"/>
    <ellipse style="fill: none; fill-opacity:0; stroke-width: 2; stroke: #000000" cx="628.919" cy="124.808" rx="21.0192" ry="19.8084"/>
    <text font-size="6.77333" style="fill: #000000;text-anchor:middle;font-family:sans-serif;font-style:normal;font-weight:normal" x="628.919" y="118.858">
      <tspan x="628.919" y="118.858">1.2.3</tspan>
      <tspan x="628.919" y="127.325">Eliminar</tspan>
      <tspan x="628.919" y="135.792">Puesto</tspan>
    </text>
  </g>
  <g>
    <ellipse style="fill: #ffffff" cx="580.061" cy="120.885" rx="22.1614" ry="20.8848"/>
    <ellipse style="fill: none; fill-opacity:0; stroke-width: 2; stroke: #000000" cx="580.061" cy="120.885" rx="22.1614" ry="20.8848"/>
    <text font-size="6.77333" style="fill: #000000;text-anchor:middle;font-family:sans-serif;font-style:normal;font-weight:normal" x="580.061" y="114.935">
      <tspan x="580.061" y="114.935">1.2.2</tspan>
      <tspan x="580.061" y="123.401">Modificar</tspan>
      <tspan x="580.061" y="131.868">Puesto</tspan>
    </text>
  </g>
  <g>
    <ellipse style="fill: #ffffff" cx="533.272" cy="120.199" rx="20.3723" ry="19.1988"/>
    <ellipse style="fill: none; fill-opacity:0; stroke-width: 2; stroke: #000000" cx="533.272" cy="120.199" rx="20.3723" ry="19.1988"/>
    <text font-size="6.77333" style="fill: #000000;text-anchor:middle;font-family:sans-serif;font-style:normal;font-weight:normal" x="533.272" y="114.249">
      <tspan x="533.272" y="114.249">1.2.1</tspan>
      <tspan x="533.272" y="122.716">Crear</tspan>
      <tspan x="533.272" y="131.182">Puesto </tspan>
    </text>
  </g>
  <line style="fill: none; fill-opacity:0; stroke-width: 2; stroke: #000000" x1="561.806" y1="79.2603" x2="545.02" y2="103.344"/>
  <line style="fill: none; fill-opacity:0; stroke-width: 2; stroke: #000000" x1="578.085" y1="82.4112" x2="578.939" y2="99.0343"/>
  <line style="fill: none; fill-opacity:0; stroke-width: 2; stroke: #000000" x1="593.112" y1="78.7038" x2="615.887" y2="108.029"/>
  <line style="fill: none; fill-opacity:0; stroke-width: 2; stroke: #000000" x1="696.354" y1="81.695" x2="691.135" y2="99.9162"/>
  <line style="fill: none; fill-opacity:0; stroke-width: 2; stroke: #000000" x1="716.37" y1="80.0554" x2="728.841" y2="102.026"/>
  <line style="fill: none; fill-opacity:0; stroke-width: 2; stroke: #000000" x1="727.679" y1="73.1501" x2="778.945" y2="106.867"/>
  <g>
    <rect style="fill: none; fill-opacity:0; stroke-width: 2; stroke: #000000" x="313" y="9" width="525" height="188"/>
    <text font-size="12.7998" style="fill: #000000;text-anchor:middle;font-family:sans-serif;font-style:normal;font-weight:normal" x="575.5" y="107.8">
      <tspan x="575.5" y="107.8"></tspan>
    </text>
  </g>
  <g>
    <ellipse style="fill: #ffffff" cx="147.154" cy="255.206" rx="25.4812" ry="20.2055"/>
    <ellipse style="fill: none; fill-opacity:0; stroke-width: 2; stroke: #000000" cx="147.154" cy="255.206" rx="25.4812" ry="20.2055"/>
    <text font-size="6.77333" style="fill: #000000;text-anchor:middle;font-family:sans-serif;font-style:normal;font-weight:normal" x="147.154" y="249.256">
      <tspan x="147.154" y="249.256">1.1.1</tspan>
      <tspan x="147.154" y="257.722">Altas</tspan>
      <tspan x="147.154" y="266.189">Empleados</tspan>
    </text>
  </g>
  <g>
    <ellipse style="fill: #ffffff" cx="492.293" cy="249.499" rx="28.6206" ry="26.499"/>
    <ellipse style="fill: none; fill-opacity:0; stroke-width: 2; stroke: #000000" cx="492.293" cy="249.499" rx="28.6206" ry="26.499"/>
    <text font-size="6.77333" style="fill: #000000;text-anchor:middle;font-family:sans-serif;font-style:normal;font-weight:normal" x="492.293" y="243.549">
      <tspan x="492.293" y="243.549">1.3.1</tspan>
      <tspan x="492.293" y="252.016">Crear</tspan>
      <tspan x="492.293" y="260.482">Departamento</tspan>
    </text>
  </g>
  <g>
    <ellipse style="fill: #ffffff" cx="321.045" cy="291.199" rx="20.3723" ry="19.1988"/>
    <ellipse style="fill: none; fill-opacity:0; stroke-width: 2; stroke: #000000" cx="321.045" cy="291.199" rx="20.3723" ry="19.1988"/>
    <text font-size="6.77333" style="fill: #000000;text-anchor:middle;font-family:sans-serif;font-style:normal;font-weight:normal" x="321.045" y="285.249">
      <tspan x="321.045" y="285.249">1.2.1</tspan>
      <tspan x="321.045" y="293.716">Crear</tspan>
      <tspan x="321.045" y="302.182">Puesto </tspan>
    </text>
  </g>
  <g>
    <ellipse style="fill: #ffffff" cx="104.155" cy="304.586" rx="28.4827" ry="22.5856"/>
    <ellipse style="fill: none; fill-opacity:0; stroke-width: 2; stroke: #000000" cx="104.155" cy="304.586" rx="28.4827" ry="22.5856"/>
    <text font-size="6.77333" style="fill: #000000;text-anchor:middle;font-family:sans-serif;font-style:normal;font-weight:normal" x="104.155" y="298.636">
      <tspan x="104.155" y="298.636">1.1.1.1</tspan>
      <tspan x="104.155" y="307.102">Ingresar ID</tspan>
      <tspan x="104.155" y="315.569">del Empleado</tspan>
    </text>
  </g>
  <g>
    <ellipse style="fill: #ffffff" cx="187.763" cy="307.447" rx="32.0907" ry="25.4466"/>
    <ellipse style="fill: none; fill-opacity:0; stroke-width: 2; stroke: #000000" cx="187.763" cy="307.447" rx="32.0907" ry="25.4466"/>
    <text font-size="6.77333" style="fill: #000000;text-anchor:middle;font-family:sans-serif;font-style:normal;font-weight:normal" x="187.763" y="297.263">
      <tspan x="187.763" y="297.263">1.1.1.2</tspan>
      <tspan x="187.763" y="305.73">Ingresar</tspan>
      <tspan x="187.763" y="314.197">Nombre</tspan>
      <tspan x="187.763" y="322.663">del Empleado</tspan>
    </text>
  </g>
  <g>
    <ellipse style="fill: #ffffff" cx="144.085" cy="344.529" rx="28.4119" ry="22.5294"/>
    <ellipse style="fill: none; fill-opacity:0; stroke-width: 2; stroke: #000000" cx="144.085" cy="344.529" rx="28.4119" ry="22.5294"/>
    <text font-size="6.77333" style="fill: #000000;text-anchor:middle;font-family:sans-serif;font-style:normal;font-weight:normal" x="144.085" y="338.579">
      <tspan x="144.085" y="338.579">1.1.1.3</tspan>
      <tspan x="144.085" y="347.046">Ingresar Nit</tspan>
      <tspan x="144.085" y="355.513">del Empleado</tspan>
    </text>
  </g>
  <g>
    <ellipse style="fill: #ffffff" cx="361.888" cy="337.268" rx="26.2157" ry="29.0358"/>
    <ellipse style="fill: none; fill-opacity:0; stroke-width: 2; stroke: #000000" cx="361.888" cy="337.268" rx="26.2157" ry="29.0358"/>
    <text font-size="6.77333" style="fill: #000000;text-anchor:middle;font-family:sans-serif;font-style:normal;font-weight:normal" x="361.888" y="327.085">
      <tspan x="361.888" y="327.085">1.2.1.2</tspan>
      <tspan x="361.888" y="335.551">Ingresar</tspan>
      <tspan x="361.888" y="344.018">Sueldo/hora</tspan>
      <tspan x="361.888" y="352.485">del puesto</tspan>
    </text>
  </g>
  <g>
    <ellipse style="fill: #ffffff" cx="286.008" cy="346.055" rx="30.3355" ry="24.0548"/>
    <ellipse style="fill: none; fill-opacity:0; stroke-width: 2; stroke: #000000" cx="286.008" cy="346.055" rx="30.3355" ry="24.0548"/>
    <text font-size="6.77333" style="fill: #000000;text-anchor:middle;font-family:sans-serif;font-style:normal;font-weight:normal" x="286.008" y="335.871">
      <tspan x="286.008" y="335.871">1.2.1.1</tspan>
      <tspan x="286.008" y="344.338">Ingresar</tspan>
      <tspan x="286.008" y="352.805">Nombre del</tspan>
      <tspan x="286.008" y="361.271">Puesto</tspan>
    </text>
  </g>
  <g>
    <ellipse style="fill: #ffffff" cx="439.57" cy="312.086" rx="32.8977" ry="26.0865"/>
    <ellipse style="fill: none; fill-opacity:0; stroke-width: 2; stroke: #000000" cx="439.57" cy="312.086" rx="32.8977" ry="26.0865"/>
    <text font-size="6.77333" style="fill: #000000;text-anchor:middle;font-family:sans-serif;font-style:normal;font-weight:normal" x="439.57" y="301.903">
      <tspan x="439.57" y="301.903">1.3.1.1</tspan>
      <tspan x="439.57" y="310.37">Ingresar</tspan>
      <tspan x="439.57" y="318.836">Nombre del</tspan>
      <tspan x="439.57" y="327.303">Departamento</tspan>
    </text>
  </g>
  <line style="fill: none; fill-opacity:0; stroke-width: 2; stroke: #000000" x1="132.027" y1="272.578" x2="120.999" y2="285.242"/>
  <line style="fill: none; fill-opacity:0; stroke-width: 2; stroke: #000000" x1="161.138" y1="273.195" x2="170.309" y2="284.993"/>
  <line style="fill: none; fill-opacity:0; stroke-width: 2; stroke: #000000" x1="146.425" y1="276.408" x2="144.893" y2="321.01"/>
  <line style="fill: none; fill-opacity:0; stroke-width: 2; stroke: #000000" x1="334.771" y1="306.681" x2="342.858" y2="315.802"/>
  <g>
    <ellipse style="fill: #ffffff" cx="515.597" cy="316.28" rx="36.9248" ry="29.2799"/>
    <ellipse style="fill: none; fill-opacity:0; stroke-width: 2; stroke: #000000" cx="515.597" cy="316.28" rx="36.9248" ry="29.2799"/>
    <text font-size="6.77333" style="fill: #000000;text-anchor:middle;font-family:sans-serif;font-style:normal;font-weight:normal" x="515.597" y="306.097">
      <tspan x="515.597" y="306.097">1.3.1.3</tspan>
      <tspan x="515.597" y="314.563">Ingresar</tspan>
      <tspan x="515.597" y="323.03">Ubicacion</tspan>
      <tspan x="515.597" y="331.497">del Departamento</tspan>
    </text>
  </g>
  <g>
    <ellipse style="fill: #ffffff" cx="594.691" cy="311.582" rx="36.0187" ry="33.5823"/>
    <ellipse style="fill: none; fill-opacity:0; stroke-width: 2; stroke: #000000" cx="594.691" cy="311.582" rx="36.0187" ry="33.5823"/>
    <text font-size="6.77333" style="fill: #000000;text-anchor:middle;font-family:sans-serif;font-style:normal;font-weight:normal" x="594.691" y="301.399">
      <tspan x="594.691" y="301.399">1,3,1,2</tspan>
      <tspan x="594.691" y="309.866">Ingresar</tspan>
      <tspan x="594.691" y="318.332"> Presupuesto</tspan>
      <tspan x="594.691" y="326.799">del Departamento</tspan>
    </text>
  </g>
  <line style="fill: none; fill-opacity:0; stroke-width: 2; stroke: #000000" x1="310.01" y1="308.475" x2="300.25" y2="323.756"/>
  <line style="fill: none; fill-opacity:0; stroke-width: 2; stroke: #000000" x1="474.054" y1="271.151" x2="458.479" y2="289.64"/>
  <line style="fill: none; fill-opacity:0; stroke-width: 2; stroke: #000000" x1="516.693" y1="264.292" x2="563.636" y2="292.753"/>
  <line style="fill: none; fill-opacity:0; stroke-width: 2; stroke: #000000" x1="501.422" y1="275.659" x2="505.422" y2="287.12"/>
  <g>
    <rect style="fill: #ffffff" x="115.673" y="402" width="100" height="20"/>
    <rect style="fill: none; fill-opacity:0; stroke-width: 2; stroke: #000000" x="115.673" y="402" width="100" height="20"/>
    <text font-size="7.90222" style="fill: #000000;text-anchor:middle;font-family:sans-serif;font-style:normal;font-weight:normal" x="165.673" y="414.961">
      <tspan x="165.673" y="414.961">   Empleados</tspan>
    </text>
  </g>
  <g>
    <rect style="fill: #ffffff" x="115.673" y="402" width="24" height="20"/>
    <rect style="fill: none; fill-opacity:0; stroke-width: 2; stroke: #000000" x="115.673" y="402" width="24" height="20"/>
    <text font-size="8.79404" style="fill: #000000;text-anchor:middle;font-family:sans-serif;font-style:normal;font-weight:normal" x="127.673" y="415.304">
      <tspan x="127.673" y="415.304">A</tspan>
    </text>
  </g>
  <g>
    <rect style="fill: #ffffff" x="464.673" y="393" width="100" height="20"/>
    <rect style="fill: none; fill-opacity:0; stroke-width: 2; stroke: #000000" x="464.673" y="393" width="100" height="20"/>
    <text font-size="7.90222" style="fill: #000000;text-anchor:middle;font-family:sans-serif;font-style:normal;font-weight:normal" x="514.673" y="405.961">
      <tspan x="514.673" y="405.961">   Departamentos</tspan>
    </text>
  </g>
  <g>
    <rect style="fill: #ffffff" x="463.673" y="392" width="24" height="20"/>
    <rect style="fill: none; fill-opacity:0; stroke-width: 2; stroke: #000000" x="463.673" y="392" width="24" height="20"/>
    <text font-size="8.79404" style="fill: #000000;text-anchor:middle;font-family:sans-serif;font-style:normal;font-weight:normal" x="475.673" y="405.304">
      <tspan x="475.673" y="405.304">C</tspan>
    </text>
  </g>
  <g>
    <path style="fill: none; fill-opacity:0; stroke-width: 2; stroke: #000000" d="M 84.2712 321.982 C -4.21143,399.396 94.3576,412 103.781,412"/>
    <polygon style="fill: #000000" points="103.781,417 113.781,412 103.781,407 "/>
    <polygon style="fill: none; fill-opacity:0; stroke-width: 2; stroke: #000000" points="103.781,417 113.781,412 103.781,407 "/>
  </g>
  <g>
    <line style="fill: none; fill-opacity:0; stroke-width: 2; stroke: #000000" x1="151.358" y1="367.261" x2="158.81" y2="390.553"/>
    <polygon style="fill: #000000" points="154.048,392.076 161.858,400.077 163.572,389.029 "/>
    <polygon style="fill: none; fill-opacity:0; stroke-width: 2; stroke: #000000" points="154.048,392.076 161.858,400.077 163.572,389.029 "/>
  </g>
  <g>
    <path style="fill: none; fill-opacity:0; stroke-width: 2; stroke: #000000" d="M 215.464 321.892 C 243.373,336.446 235.673,402 225.511,407.081"/>
    <polygon style="fill: #000000" points="223.275,402.609 216.567,411.553 227.747,411.553 "/>
    <polygon style="fill: none; fill-opacity:0; stroke-width: 2; stroke: #000000" points="223.275,402.609 216.567,411.553 227.747,411.553 "/>
  </g>
  <g>
    <rect style="fill: #ffffff" x="273.673" y="392" width="100" height="20"/>
    <rect style="fill: none; fill-opacity:0; stroke-width: 2; stroke: #000000" x="273.673" y="392" width="100" height="20"/>
    <text font-size="7.90222" style="fill: #000000;text-anchor:middle;font-family:sans-serif;font-style:normal;font-weight:normal" x="323.673" y="404.961">
      <tspan x="323.673" y="404.961">   Puestos</tspan>
    </text>
  </g>
  <g>
    <rect style="fill: #ffffff" x="273.673" y="390" width="24" height="20"/>
    <rect style="fill: none; fill-opacity:0; stroke-width: 2; stroke: #000000" x="273.673" y="390" width="24" height="20"/>
    <text font-size="8.79404" style="fill: #000000;text-anchor:middle;font-family:sans-serif;font-style:normal;font-weight:normal" x="285.673" y="403.304">
      <tspan x="285.673" y="403.304">B</tspan>
    </text>
  </g>
  <g>
    <polyline style="fill: none; fill-opacity:0; stroke-width: 2; stroke: #000000" points="300.854,368.106 310.127,381.88 "/>
    <polygon style="fill: #000000" points="305.98,384.672 315.712,390.175 314.275,379.088 "/>
    <polygon style="fill: none; fill-opacity:0; stroke-width: 2; stroke: #000000" points="305.98,384.672 315.712,390.175 314.275,379.088 "/>
  </g>
  <g>
    <polyline style="fill: none; fill-opacity:0; stroke-width: 2; stroke: #000000" points="347.03,362.435 335.763,381.52 "/>
    <polygon style="fill: #000000" points="331.458,378.978 330.679,390.132 340.069,384.062 "/>
    <polygon style="fill: none; fill-opacity:0; stroke-width: 2; stroke: #000000" points="331.458,378.978 330.679,390.132 340.069,384.062 "/>
  </g>
  <g>
    <path style="fill: none; fill-opacity:0; stroke-width: 2; stroke: #000000" d="M 422.761 335.574 C 369.863,409.488 456.344,402 451.686,402"/>
    <polygon style="fill: #000000" points="451.686,407 461.686,402 451.686,397 "/>
    <polygon style="fill: none; fill-opacity:0; stroke-width: 2; stroke: #000000" points="451.686,407 461.686,402 451.686,397 "/>
  </g>
  <g>
    <line style="fill: none; fill-opacity:0; stroke-width: 2; stroke: #000000" x1="515.274" y1="346.566" x2="514.906" y2="381.076"/>
    <polygon style="fill: #000000" points="509.907,381.023 514.8,391.075 519.906,381.129 "/>
    <polygon style="fill: none; fill-opacity:0; stroke-width: 2; stroke: #000000" points="509.907,381.023 514.8,391.075 519.906,381.129 "/>
  </g>
  <g>
    <path style="fill: none; fill-opacity:0; stroke-width: 2; stroke: #000000" d="M 622.946 333.928 C 706.928,400.346 587.489,403 576.571,403"/>
    <polygon style="fill: #000000" points="576.571,398 566.571,403 576.571,408 "/>
    <polygon style="fill: none; fill-opacity:0; stroke-width: 2; stroke: #000000" points="576.571,398 566.571,403 576.571,408 "/>
  </g>
  <g>
    <rect style="fill: none; fill-opacity:0; stroke-width: 2; stroke: #000000" x="34" y="214" width="640" height="240"/>
    <text font-size="12.7998" style="fill: #000000;text-anchor:middle;font-family:sans-serif;font-style:normal;font-weight:normal" x="354" y="338.8">
      <tspan x="354" y="338.8"></tspan>
    </text>
  </g>
  <text font-size="12.7998" style="fill: #000000;text-anchor:start;font-family:sans-serif;font-style:normal;font-weight:normal" x="186.75" y="40">
    <tspan x="186.75" y="40">Diagrama Hijo</tspan>
  </text>
  <text font-size="12.7998" style="fill: #000000;text-anchor:start;font-family:sans-serif;font-style:normal;font-weight:normal" x="487.25" y="175">
    <tspan x="487.25" y="175">Diagrama Hijo 1.1, 1.2, 1.3</tspan>
  </text>
  <text font-size="12.7998" style="fill: #000000;text-anchor:start;font-family:sans-serif;font-style:normal;font-weight:normal" x="246" y="439">
    <tspan x="246" y="439">Diagrama Hijo 1.1.1, 1.2.1, 1.3.1</tspan>
  </text>
</svg>
